<svg width="80" height="80" viewBox="0 0 80 80" fill="none" xmlns="http://www.w3.org/2000/svg">
<path d="M20.749 44H19.2646L19.2744 43.2334H20.749C21.2568 43.2334 21.68 43.1276 22.0186 42.916C22.3571 42.7012 22.611 42.4017 22.7803 42.0176C22.9528 41.6302 23.0391 41.1777 23.0391 40.6602V40.2256C23.0391 39.8187 22.9902 39.4574 22.8926 39.1416C22.7949 38.8226 22.6517 38.554 22.4629 38.3359C22.2741 38.1146 22.043 37.9469 21.7695 37.833C21.4993 37.7191 21.1885 37.6621 20.8369 37.6621H19.2354V36.8906H20.8369C21.3024 36.8906 21.7272 36.9688 22.1113 37.125C22.4954 37.278 22.8258 37.501 23.1025 37.7939C23.3825 38.0837 23.5973 38.4352 23.7471 38.8486C23.8968 39.2588 23.9717 39.721 23.9717 40.2354V40.6602C23.9717 41.1745 23.8968 41.6383 23.7471 42.0518C23.5973 42.4619 23.3809 42.8118 23.0977 43.1016C22.8177 43.3913 22.4792 43.6143 22.082 43.7705C21.6882 43.9235 21.2438 44 20.749 44ZM19.7676 36.8906V44H18.8252V36.8906H19.7676ZM26.1543 39.5469V44H25.251V38.7168H26.1299L26.1543 39.5469ZM27.8047 38.6875L27.7998 39.5273C27.7249 39.5111 27.6533 39.5013 27.585 39.498C27.5199 39.4915 27.445 39.4883 27.3604 39.4883C27.152 39.4883 26.9681 39.5208 26.8086 39.5859C26.6491 39.651 26.514 39.7422 26.4033 39.8594C26.2926 39.9766 26.2048 40.1165 26.1396 40.2793C26.0778 40.4388 26.0371 40.6146 26.0176 40.8066L25.7637 40.9531C25.7637 40.6341 25.7946 40.3346 25.8564 40.0547C25.9215 39.7747 26.0208 39.5273 26.1543 39.3125C26.2878 39.0944 26.457 38.9251 26.6621 38.8047C26.8704 38.681 27.1178 38.6191 27.4043 38.6191C27.4694 38.6191 27.5443 38.6273 27.6289 38.6436C27.7135 38.6566 27.7721 38.6712 27.8047 38.6875ZM28.3027 41.417V41.3047C28.3027 40.9238 28.3581 40.5706 28.4688 40.2451C28.5794 39.9163 28.7389 39.6315 28.9473 39.3906C29.1556 39.1465 29.4079 38.9577 29.7041 38.8242C30.0003 38.6875 30.3324 38.6191 30.7002 38.6191C31.0713 38.6191 31.4049 38.6875 31.7012 38.8242C32.0007 38.9577 32.2546 39.1465 32.4629 39.3906C32.6745 39.6315 32.8356 39.9163 32.9463 40.2451C33.057 40.5706 33.1123 40.9238 33.1123 41.3047V41.417C33.1123 41.7979 33.057 42.151 32.9463 42.4766C32.8356 42.8021 32.6745 43.0869 32.4629 43.3311C32.2546 43.5719 32.0023 43.7607 31.7061 43.8975C31.4131 44.0309 31.0811 44.0977 30.71 44.0977C30.3389 44.0977 30.0052 44.0309 29.709 43.8975C29.4128 43.7607 29.1589 43.5719 28.9473 43.3311C28.7389 43.0869 28.5794 42.8021 28.4688 42.4766C28.3581 42.151 28.3027 41.7979 28.3027 41.417ZM29.2061 41.3047V41.417C29.2061 41.6807 29.237 41.9297 29.2988 42.1641C29.3607 42.3952 29.4535 42.6003 29.5771 42.7793C29.7041 42.9583 29.862 43.0999 30.0508 43.2041C30.2396 43.305 30.4593 43.3555 30.71 43.3555C30.9574 43.3555 31.1738 43.305 31.3594 43.2041C31.5482 43.0999 31.7044 42.9583 31.8281 42.7793C31.9518 42.6003 32.0446 42.3952 32.1064 42.1641C32.1715 41.9297 32.2041 41.6807 32.2041 41.417V41.3047C32.2041 41.0443 32.1715 40.7985 32.1064 40.5674C32.0446 40.333 31.9502 40.1263 31.8232 39.9473C31.6995 39.765 31.5433 39.6217 31.3545 39.5176C31.1689 39.4134 30.9508 39.3613 30.7002 39.3613C30.4528 39.3613 30.2347 39.4134 30.0459 39.5176C29.8604 39.6217 29.7041 39.765 29.5771 39.9473C29.4535 40.1263 29.3607 40.333 29.2988 40.5674C29.237 40.7985 29.2061 41.0443 29.2061 41.3047ZM35.1484 39.7324V46.0312H34.2402V38.7168H35.0703L35.1484 39.7324ZM38.708 41.3145V41.417C38.708 41.8011 38.6624 42.1576 38.5713 42.4863C38.4801 42.8118 38.3467 43.0951 38.1709 43.3359C37.9984 43.5768 37.7852 43.764 37.5312 43.8975C37.2773 44.0309 36.986 44.0977 36.6572 44.0977C36.3219 44.0977 36.0257 44.0423 35.7686 43.9316C35.5114 43.821 35.2933 43.6598 35.1143 43.4482C34.9352 43.2367 34.792 42.9827 34.6846 42.6865C34.5804 42.3903 34.5088 42.0566 34.4697 41.6855V41.1387C34.5088 40.748 34.582 40.3981 34.6895 40.0889C34.7969 39.7796 34.9385 39.516 35.1143 39.2979C35.2933 39.0765 35.5098 38.9089 35.7637 38.7949C36.0176 38.6777 36.3105 38.6191 36.6426 38.6191C36.9746 38.6191 37.2692 38.6842 37.5264 38.8145C37.7835 38.9414 38 39.1237 38.1758 39.3613C38.3516 39.599 38.4834 39.8838 38.5713 40.2158C38.6624 40.5446 38.708 40.9108 38.708 41.3145ZM37.7998 41.417V41.3145C37.7998 41.0508 37.7721 40.8034 37.7168 40.5723C37.6615 40.3379 37.5752 40.1328 37.458 39.957C37.3441 39.778 37.1976 39.638 37.0186 39.5371C36.8395 39.4329 36.6263 39.3809 36.3789 39.3809C36.151 39.3809 35.9525 39.4199 35.7832 39.498C35.6172 39.5762 35.4756 39.682 35.3584 39.8154C35.2412 39.9456 35.1452 40.0954 35.0703 40.2646C34.9987 40.4307 34.945 40.6032 34.9092 40.7822V42.0469C34.9743 42.2747 35.0654 42.4896 35.1826 42.6914C35.2998 42.89 35.4561 43.0511 35.6514 43.1748C35.8467 43.2952 36.0924 43.3555 36.3887 43.3555C36.6328 43.3555 36.8428 43.305 37.0186 43.2041C37.1976 43.0999 37.3441 42.9583 37.458 42.7793C37.5752 42.6003 37.6615 42.3952 37.7168 42.1641C37.7721 41.9297 37.7998 41.6807 37.7998 41.417ZM43.2441 36.5V44H42.3408V36.5H43.2441ZM43.0293 41.1582L42.6533 41.1436C42.6566 40.7822 42.7103 40.4486 42.8145 40.1426C42.9186 39.8333 43.0651 39.5648 43.2539 39.3369C43.4427 39.109 43.6673 38.9333 43.9277 38.8096C44.1914 38.6826 44.4827 38.6191 44.8018 38.6191C45.0622 38.6191 45.2965 38.6549 45.5049 38.7266C45.7132 38.7949 45.8906 38.9056 46.0371 39.0586C46.1868 39.2116 46.3008 39.4102 46.3789 39.6543C46.457 39.8952 46.4961 40.1898 46.4961 40.5381V44H45.5879V40.5283C45.5879 40.2516 45.5472 40.0303 45.4658 39.8643C45.3844 39.695 45.2656 39.5729 45.1094 39.498C44.9531 39.4199 44.7611 39.3809 44.5332 39.3809C44.3086 39.3809 44.1035 39.4281 43.918 39.5225C43.7357 39.6169 43.5778 39.7471 43.4443 39.9131C43.3141 40.0791 43.2116 40.2695 43.1367 40.4844C43.0651 40.696 43.0293 40.9206 43.0293 41.1582ZM50.041 44.0977C49.6732 44.0977 49.3395 44.0358 49.04 43.9121C48.7438 43.7852 48.4883 43.6077 48.2734 43.3799C48.0618 43.152 47.8991 42.8818 47.7852 42.5693C47.6712 42.2568 47.6143 41.915 47.6143 41.5439V41.3389C47.6143 40.9092 47.6777 40.5267 47.8047 40.1914C47.9316 39.8529 48.1042 39.5664 48.3223 39.332C48.5404 39.0977 48.7878 38.9202 49.0645 38.7998C49.3411 38.6794 49.6276 38.6191 49.9238 38.6191C50.3014 38.6191 50.627 38.6842 50.9004 38.8145C51.1771 38.9447 51.4033 39.127 51.5791 39.3613C51.7549 39.5924 51.8851 39.8659 51.9697 40.1816C52.0544 40.4941 52.0967 40.8359 52.0967 41.207V41.6123H48.1514V40.875H51.1934V40.8066C51.1803 40.5723 51.1315 40.3444 51.0469 40.123C50.9655 39.9017 50.8353 39.7194 50.6562 39.5762C50.4772 39.4329 50.2331 39.3613 49.9238 39.3613C49.7188 39.3613 49.5299 39.4053 49.3574 39.4932C49.1849 39.5778 49.0368 39.7048 48.9131 39.874C48.7894 40.0433 48.6934 40.25 48.625 40.4941C48.5566 40.7383 48.5225 41.0199 48.5225 41.3389V41.5439C48.5225 41.7946 48.5566 42.0306 48.625 42.252C48.6966 42.4701 48.7992 42.6621 48.9326 42.8281C49.0693 42.9941 49.2337 43.1243 49.4258 43.2188C49.6211 43.3132 49.8424 43.3604 50.0898 43.3604C50.4089 43.3604 50.679 43.2952 50.9004 43.165C51.1217 43.0348 51.3154 42.8607 51.4814 42.6426L52.0283 43.0771C51.9144 43.2497 51.7695 43.4141 51.5938 43.5703C51.418 43.7266 51.2015 43.8535 50.9443 43.9512C50.6904 44.0488 50.3893 44.0977 50.041 44.0977ZM54.0547 39.5469V44H53.1514V38.7168H54.0303L54.0547 39.5469ZM55.7051 38.6875L55.7002 39.5273C55.6253 39.5111 55.5537 39.5013 55.4854 39.498C55.4202 39.4915 55.3454 39.4883 55.2607 39.4883C55.0524 39.4883 54.8685 39.5208 54.709 39.5859C54.5495 39.651 54.4144 39.7422 54.3037 39.8594C54.193 39.9766 54.1051 40.1165 54.04 40.2793C53.9782 40.4388 53.9375 40.6146 53.918 40.8066L53.6641 40.9531C53.6641 40.6341 53.695 40.3346 53.7568 40.0547C53.8219 39.7747 53.9212 39.5273 54.0547 39.3125C54.1882 39.0944 54.3574 38.9251 54.5625 38.8047C54.7708 38.681 55.0182 38.6191 55.3047 38.6191C55.3698 38.6191 55.4447 38.6273 55.5293 38.6436C55.6139 38.6566 55.6725 38.6712 55.7051 38.6875ZM58.6348 44.0977C58.2669 44.0977 57.9333 44.0358 57.6338 43.9121C57.3376 43.7852 57.082 43.6077 56.8672 43.3799C56.6556 43.152 56.4928 42.8818 56.3789 42.5693C56.265 42.2568 56.208 41.915 56.208 41.5439V41.3389C56.208 40.9092 56.2715 40.5267 56.3984 40.1914C56.5254 39.8529 56.6979 39.5664 56.916 39.332C57.1341 39.0977 57.3815 38.9202 57.6582 38.7998C57.9349 38.6794 58.2214 38.6191 58.5176 38.6191C58.8952 38.6191 59.2207 38.6842 59.4941 38.8145C59.7708 38.9447 59.9971 39.127 60.1729 39.3613C60.3486 39.5924 60.4788 39.8659 60.5635 40.1816C60.6481 40.4941 60.6904 40.8359 60.6904 41.207V41.6123H56.7451V40.875H59.7871V40.8066C59.7741 40.5723 59.7253 40.3444 59.6406 40.123C59.5592 39.9017 59.429 39.7194 59.25 39.5762C59.071 39.4329 58.8268 39.3613 58.5176 39.3613C58.3125 39.3613 58.1237 39.4053 57.9512 39.4932C57.7786 39.5778 57.6305 39.7048 57.5068 39.874C57.3831 40.0433 57.2871 40.25 57.2188 40.4941C57.1504 40.7383 57.1162 41.0199 57.1162 41.3389V41.5439C57.1162 41.7946 57.1504 42.0306 57.2188 42.252C57.2904 42.4701 57.3929 42.6621 57.5264 42.8281C57.6631 42.9941 57.8275 43.1243 58.0195 43.2188C58.2148 43.3132 58.4362 43.3604 58.6836 43.3604C59.0026 43.3604 59.2728 43.2952 59.4941 43.165C59.7155 43.0348 59.9092 42.8607 60.0752 42.6426L60.6221 43.0771C60.5081 43.2497 60.3633 43.4141 60.1875 43.5703C60.0117 43.7266 59.7952 43.8535 59.5381 43.9512C59.2842 44.0488 58.9831 44.0977 58.6348 44.0977Z" fill="#808080"/>
</svg>
