<svg width="80" height="80" viewBox="0 0 80 80" fill="none" xmlns="http://www.w3.org/2000/svg">
<rect x="0.5" y="0.5" width="79" height="79" rx="2.5" stroke="#7C7C7C"/>
<path d="M24.2939 36.8906V44H23.3467L19.7676 38.5166V44H18.8252V36.8906H19.7676L23.3613 42.3887V36.8906H24.2939ZM25.5879 41.417V41.3047C25.5879 40.9238 25.6432 40.5706 25.7539 40.2451C25.8646 39.9163 26.0241 39.6315 26.2324 39.3906C26.4408 39.1465 26.693 38.9577 26.9893 38.8242C27.2855 38.6875 27.6175 38.6191 27.9854 38.6191C28.3564 38.6191 28.6901 38.6875 28.9863 38.8242C29.2858 38.9577 29.5397 39.1465 29.748 39.3906C29.9596 39.6315 30.1208 39.9163 30.2314 40.2451C30.3421 40.5706 30.3975 40.9238 30.3975 41.3047V41.417C30.3975 41.7979 30.3421 42.151 30.2314 42.4766C30.1208 42.8021 29.9596 43.0869 29.748 43.3311C29.5397 43.5719 29.2874 43.7607 28.9912 43.8975C28.6982 44.0309 28.3662 44.0977 27.9951 44.0977C27.624 44.0977 27.2904 44.0309 26.9941 43.8975C26.6979 43.7607 26.444 43.5719 26.2324 43.3311C26.0241 43.0869 25.8646 42.8021 25.7539 42.4766C25.6432 42.151 25.5879 41.7979 25.5879 41.417ZM26.4912 41.3047V41.417C26.4912 41.6807 26.5221 41.9297 26.584 42.1641C26.6458 42.3952 26.7386 42.6003 26.8623 42.7793C26.9893 42.9583 27.1471 43.0999 27.3359 43.2041C27.5247 43.305 27.7445 43.3555 27.9951 43.3555C28.2425 43.3555 28.459 43.305 28.6445 43.2041C28.8333 43.0999 28.9896 42.9583 29.1133 42.7793C29.237 42.6003 29.3298 42.3952 29.3916 42.1641C29.4567 41.9297 29.4893 41.6807 29.4893 41.417V41.3047C29.4893 41.0443 29.4567 40.7985 29.3916 40.5674C29.3298 40.333 29.2354 40.1263 29.1084 39.9473C28.9847 39.765 28.8285 39.6217 28.6396 39.5176C28.4541 39.4134 28.236 39.3613 27.9854 39.3613C27.738 39.3613 27.5199 39.4134 27.3311 39.5176C27.1455 39.6217 26.9893 39.765 26.8623 39.9473C26.7386 40.1263 26.6458 40.333 26.584 40.5674C26.5221 40.7985 26.4912 41.0443 26.4912 41.3047ZM35.1582 36.8906V44H34.2158V36.8906H35.1582ZM37.6338 39.7666V44H36.7256V38.7168H37.585L37.6338 39.7666ZM37.4482 41.1582L37.0283 41.1436C37.0316 40.7822 37.0788 40.4486 37.1699 40.1426C37.2611 39.8333 37.3962 39.5648 37.5752 39.3369C37.7542 39.109 37.9772 38.9333 38.2441 38.8096C38.5111 38.6826 38.8203 38.6191 39.1719 38.6191C39.4193 38.6191 39.6471 38.6549 39.8555 38.7266C40.0638 38.7949 40.2445 38.904 40.3975 39.0537C40.5505 39.2035 40.6693 39.3955 40.7539 39.6299C40.8385 39.8643 40.8809 40.1475 40.8809 40.4795V44H39.9775V40.5234C39.9775 40.2467 39.9303 40.0254 39.8359 39.8594C39.7448 39.6934 39.6146 39.5729 39.4453 39.498C39.276 39.4199 39.0775 39.3809 38.8496 39.3809C38.5827 39.3809 38.3597 39.4281 38.1807 39.5225C38.0016 39.6169 37.8584 39.7471 37.751 39.9131C37.6436 40.0791 37.5654 40.2695 37.5166 40.4844C37.471 40.696 37.4482 40.9206 37.4482 41.1582ZM40.8711 40.6602L40.2656 40.8457C40.2689 40.556 40.3161 40.2777 40.4072 40.0107C40.5016 39.7438 40.6367 39.5062 40.8125 39.2979C40.9915 39.0895 41.2113 38.9251 41.4717 38.8047C41.7321 38.681 42.0299 38.6191 42.3652 38.6191C42.6484 38.6191 42.8991 38.6566 43.1172 38.7314C43.3385 38.8063 43.5241 38.9219 43.6738 39.0781C43.8268 39.2311 43.9424 39.4281 44.0205 39.6689C44.0986 39.9098 44.1377 40.1963 44.1377 40.5283V44H43.2295V40.5186C43.2295 40.2223 43.1823 39.9928 43.0879 39.8301C42.9967 39.6641 42.8665 39.5485 42.6973 39.4834C42.5312 39.415 42.3327 39.3809 42.1016 39.3809C41.903 39.3809 41.7272 39.415 41.5742 39.4834C41.4212 39.5518 41.2926 39.6462 41.1885 39.7666C41.0843 39.8838 41.0046 40.0189 40.9492 40.1719C40.8971 40.3249 40.8711 40.4876 40.8711 40.6602ZM48.6201 43.0967V40.377C48.6201 40.1686 48.5778 39.988 48.4932 39.835C48.4118 39.6787 48.2881 39.5583 48.1221 39.4736C47.9561 39.389 47.751 39.3467 47.5068 39.3467C47.279 39.3467 47.0788 39.3857 46.9062 39.4639C46.737 39.542 46.6035 39.6445 46.5059 39.7715C46.4115 39.8984 46.3643 40.0352 46.3643 40.1816H45.4609C45.4609 39.9928 45.5098 39.8057 45.6074 39.6201C45.7051 39.4346 45.8451 39.2669 46.0273 39.1172C46.2129 38.9642 46.4342 38.8438 46.6914 38.7559C46.9518 38.6647 47.2415 38.6191 47.5605 38.6191C47.9447 38.6191 48.2832 38.6842 48.5762 38.8145C48.8724 38.9447 49.1035 39.1416 49.2695 39.4053C49.4388 39.6657 49.5234 39.9928 49.5234 40.3867V42.8477C49.5234 43.0234 49.5381 43.2106 49.5674 43.4092C49.5999 43.6077 49.6471 43.7786 49.709 43.9219V44H48.7666C48.721 43.8958 48.6852 43.7575 48.6592 43.585C48.6331 43.4092 48.6201 43.2464 48.6201 43.0967ZM48.7764 40.7969L48.7861 41.4316H47.873C47.6159 41.4316 47.3864 41.4528 47.1846 41.4951C46.9827 41.5342 46.8135 41.5944 46.6768 41.6758C46.54 41.7572 46.4359 41.8597 46.3643 41.9834C46.2926 42.1038 46.2568 42.2454 46.2568 42.4082C46.2568 42.5742 46.2943 42.7256 46.3691 42.8623C46.444 42.999 46.5563 43.1081 46.7061 43.1895C46.859 43.2676 47.0462 43.3066 47.2676 43.3066C47.5443 43.3066 47.7884 43.248 48 43.1309C48.2116 43.0137 48.3792 42.8704 48.5029 42.7012C48.6299 42.5319 48.6982 42.3675 48.708 42.208L49.0938 42.6426C49.071 42.7793 49.0091 42.9307 48.9082 43.0967C48.8073 43.2627 48.6722 43.4222 48.5029 43.5752C48.3369 43.7249 48.1383 43.8503 47.9072 43.9512C47.6794 44.0488 47.4222 44.0977 47.1357 44.0977C46.7777 44.0977 46.4635 44.0277 46.1934 43.8877C45.9264 43.7477 45.7181 43.5605 45.5684 43.3262C45.4219 43.0885 45.3486 42.8232 45.3486 42.5303C45.3486 42.2471 45.404 41.998 45.5146 41.7832C45.6253 41.5651 45.7848 41.3844 45.9932 41.2412C46.2015 41.0947 46.4521 40.984 46.7451 40.9092C47.0381 40.8343 47.3652 40.7969 47.7266 40.7969H48.7764ZM54.3672 38.7168H55.1875V43.8877C55.1875 44.3532 55.0931 44.7503 54.9043 45.0791C54.7155 45.4079 54.4518 45.6569 54.1133 45.8262C53.778 45.9987 53.3906 46.085 52.9512 46.085C52.7689 46.085 52.554 46.0557 52.3066 45.9971C52.0625 45.9417 51.8216 45.8457 51.584 45.709C51.3496 45.5755 51.1527 45.3949 50.9932 45.167L51.4668 44.6299C51.6882 44.8968 51.9193 45.0824 52.1602 45.1865C52.4043 45.2907 52.6452 45.3428 52.8828 45.3428C53.1693 45.3428 53.4167 45.2891 53.625 45.1816C53.8333 45.0742 53.9945 44.9147 54.1084 44.7031C54.2256 44.4948 54.2842 44.2376 54.2842 43.9316V39.8789L54.3672 38.7168ZM50.7295 41.417V41.3145C50.7295 40.9108 50.7767 40.5446 50.8711 40.2158C50.9688 39.8838 51.1071 39.599 51.2861 39.3613C51.4684 39.1237 51.6882 38.9414 51.9453 38.8145C52.2025 38.6842 52.4922 38.6191 52.8145 38.6191C53.1465 38.6191 53.4362 38.6777 53.6836 38.7949C53.9342 38.9089 54.1458 39.0765 54.3184 39.2979C54.4941 39.516 54.6325 39.7796 54.7334 40.0889C54.8343 40.3981 54.9043 40.748 54.9434 41.1387V41.5879C54.9076 41.9753 54.8376 42.3236 54.7334 42.6328C54.6325 42.9421 54.4941 43.2057 54.3184 43.4238C54.1458 43.6419 53.9342 43.8096 53.6836 43.9268C53.4329 44.0407 53.14 44.0977 52.8047 44.0977C52.4889 44.0977 52.2025 44.0309 51.9453 43.8975C51.6914 43.764 51.4733 43.5768 51.291 43.3359C51.1087 43.0951 50.9688 42.8118 50.8711 42.4863C50.7767 42.1576 50.7295 41.8011 50.7295 41.417ZM51.6328 41.3145V41.417C51.6328 41.6807 51.6589 41.9281 51.7109 42.1592C51.7663 42.3903 51.8493 42.5938 51.96 42.7695C52.0739 42.9453 52.2188 43.0837 52.3945 43.1846C52.5703 43.2822 52.7803 43.3311 53.0244 43.3311C53.3239 43.3311 53.5713 43.2676 53.7666 43.1406C53.9619 43.0137 54.1165 42.846 54.2305 42.6377C54.3477 42.4294 54.4388 42.2031 54.5039 41.959V40.7822C54.4681 40.6032 54.4128 40.4307 54.3379 40.2646C54.2663 40.0954 54.1719 39.9456 54.0547 39.8154C53.9408 39.682 53.7992 39.5762 53.6299 39.498C53.4606 39.4199 53.262 39.3809 53.0342 39.3809C52.7868 39.3809 52.5736 39.4329 52.3945 39.5371C52.2188 39.638 52.0739 39.778 51.96 39.957C51.8493 40.1328 51.7663 40.3379 51.7109 40.5723C51.6589 40.8034 51.6328 41.0508 51.6328 41.3145ZM58.752 44.0977C58.3841 44.0977 58.0505 44.0358 57.751 43.9121C57.4548 43.7852 57.1992 43.6077 56.9844 43.3799C56.7728 43.152 56.61 42.8818 56.4961 42.5693C56.3822 42.2568 56.3252 41.915 56.3252 41.5439V41.3389C56.3252 40.9092 56.3887 40.5267 56.5156 40.1914C56.6426 39.8529 56.8151 39.5664 57.0332 39.332C57.2513 39.0977 57.4987 38.9202 57.7754 38.7998C58.0521 38.6794 58.3385 38.6191 58.6348 38.6191C59.0124 38.6191 59.3379 38.6842 59.6113 38.8145C59.888 38.9447 60.1143 39.127 60.29 39.3613C60.4658 39.5924 60.596 39.8659 60.6807 40.1816C60.7653 40.4941 60.8076 40.8359 60.8076 41.207V41.6123H56.8623V40.875H59.9043V40.8066C59.8913 40.5723 59.8424 40.3444 59.7578 40.123C59.6764 39.9017 59.5462 39.7194 59.3672 39.5762C59.1882 39.4329 58.944 39.3613 58.6348 39.3613C58.4297 39.3613 58.2409 39.4053 58.0684 39.4932C57.8958 39.5778 57.7477 39.7048 57.624 39.874C57.5003 40.0433 57.4043 40.25 57.3359 40.4941C57.2676 40.7383 57.2334 41.0199 57.2334 41.3389V41.5439C57.2334 41.7946 57.2676 42.0306 57.3359 42.252C57.4076 42.4701 57.5101 42.6621 57.6436 42.8281C57.7803 42.9941 57.9447 43.1243 58.1367 43.2188C58.332 43.3132 58.5534 43.3604 58.8008 43.3604C59.1198 43.3604 59.39 43.2952 59.6113 43.165C59.8327 43.0348 60.0264 42.8607 60.1924 42.6426L60.7393 43.0771C60.6253 43.2497 60.4805 43.4141 60.3047 43.5703C60.1289 43.7266 59.9124 43.8535 59.6553 43.9512C59.4014 44.0488 59.1003 44.0977 58.752 44.0977Z" fill="#808080"/>
</svg>
